<svg id="visual" viewBox="0 0 3840 2160" width="3840" height="2160" xmlns="http://www.w3.org/2000/svg" xmlns:xlink="http://www.w3.org/1999/xlink" version="1.1"><rect x="0" y="0" width="3840" height="2160" fill="#121212"></rect><path d="M0 1103L91.5 1095.7C183 1088.3 366 1073.7 548.8 1073.2C731.7 1072.7 914.3 1086.3 1097.2 1106.3C1280 1126.3 1463 1152.7 1645.8 1216.3C1828.7 1280 2011.3 1381 2194.2 1388.2C2377 1395.3 2560 1308.7 2742.8 1273.7C2925.7 1238.7 3108.3 1255.3 3291.2 1311.3C3474 1367.3 3657 1462.7 3748.5 1510.3L3840 1558L3840 2161L3748.5 2161C3657 2161 3474 2161 3291.2 2161C3108.3 2161 2925.7 2161 2742.8 2161C2560 2161 2377 2161 2194.2 2161C2011.3 2161 1828.7 2161 1645.8 2161C1463 2161 1280 2161 1097.2 2161C914.3 2161 731.7 2161 548.8 2161C366 2161 183 2161 91.5 2161L0 2161Z" fill="#29263a"></path><path d="M0 1425L91.5 1412.8C183 1400.7 366 1376.3 548.8 1390.3C731.7 1404.3 914.3 1456.7 1097.2 1501.2C1280 1545.7 1463 1582.3 1645.8 1562.3C1828.7 1542.3 2011.3 1465.7 2194.2 1462C2377 1458.3 2560 1527.7 2742.8 1579.7C2925.7 1631.7 3108.3 1666.3 3291.2 1700.3C3474 1734.3 3657 1767.7 3748.5 1784.3L3840 1801L3840 2161L3748.5 2161C3657 2161 3474 2161 3291.2 2161C3108.3 2161 2925.7 2161 2742.8 2161C2560 2161 2377 2161 2194.2 2161C2011.3 2161 1828.7 2161 1645.8 2161C1463 2161 1280 2161 1097.2 2161C914.3 2161 731.7 2161 548.8 2161C366 2161 183 2161 91.5 2161L0 2161Z" fill="#332a68"></path><path d="M0 1700L91.5 1754.2C183 1808.3 366 1916.7 548.8 1924.8C731.7 1933 914.3 1841 1097.2 1790.3C1280 1739.7 1463 1730.3 1645.8 1767.3C1828.7 1804.3 2011.3 1887.7 2194.2 1895.7C2377 1903.7 2560 1836.3 2742.8 1787.8C2925.7 1739.3 3108.3 1709.7 3291.2 1690C3474 1670.3 3657 1660.7 3748.5 1655.8L3840 1651L3840 2161L3748.5 2161C3657 2161 3474 2161 3291.2 2161C3108.3 2161 2925.7 2161 2742.8 2161C2560 2161 2377 2161 2194.2 2161C2011.3 2161 1828.7 2161 1645.8 2161C1463 2161 1280 2161 1097.2 2161C914.3 2161 731.7 2161 548.8 2161C366 2161 183 2161 91.5 2161L0 2161Z" fill="#3f2b96"></path></svg>