<svg id="visual" viewBox="0 0 3840 2160" width="3840" height="2160" xmlns="http://www.w3.org/2000/svg" xmlns:xlink="http://www.w3.org/1999/xlink" version="1.1"><rect x="0" y="0" width="3840" height="2160" fill="#fafafa"></rect><path d="M0 1145L45.7 1141.8C91.3 1138.7 182.7 1132.3 274.2 1145.5C365.7 1158.7 457.3 1191.3 548.8 1198.8C640.3 1206.3 731.7 1188.7 823 1152.7C914.3 1116.7 1005.7 1062.3 1097 1030.5C1188.3 998.7 1279.7 989.3 1371.2 1029C1462.7 1068.7 1554.3 1157.3 1645.8 1186C1737.3 1214.7 1828.7 1183.3 1920 1129C2011.3 1074.7 2102.7 997.3 2194.2 974.8C2285.7 952.3 2377.3 984.7 2468.8 1020.7C2560.3 1056.7 2651.7 1096.3 2743 1118.8C2834.3 1141.3 2925.7 1146.7 3017 1120C3108.3 1093.3 3199.7 1034.7 3291.2 1004.2C3382.7 973.7 3474.3 971.3 3565.8 989.7C3657.3 1008 3748.7 1047 3794.3 1066.5L3840 1086L3840 2161L3794.3 2161C3748.7 2161 3657.3 2161 3565.8 2161C3474.3 2161 3382.7 2161 3291.2 2161C3199.7 2161 3108.3 2161 3017 2161C2925.7 2161 2834.3 2161 2743 2161C2651.7 2161 2560.3 2161 2468.8 2161C2377.3 2161 2285.7 2161 2194.2 2161C2102.7 2161 2011.3 2161 1920 2161C1828.7 2161 1737.3 2161 1645.8 2161C1554.3 2161 1462.7 2161 1371.2 2161C1279.7 2161 1188.3 2161 1097 2161C1005.7 2161 914.3 2161 823 2161C731.7 2161 640.3 2161 548.8 2161C457.3 2161 365.7 2161 274.2 2161C182.7 2161 91.3 2161 45.7 2161L0 2161Z" fill="#eeeeee"></path><path d="M0 1508L45.7 1473.8C91.3 1439.7 182.7 1371.3 274.2 1356.5C365.7 1341.7 457.3 1380.3 548.8 1377.7C640.3 1375 731.7 1331 823 1348C914.3 1365 1005.7 1443 1097 1471.5C1188.3 1500 1279.7 1479 1371.2 1472.7C1462.7 1466.3 1554.3 1474.7 1645.8 1447.5C1737.3 1420.3 1828.7 1357.7 1920 1337.7C2011.3 1317.7 2102.7 1340.3 2194.2 1337.5C2285.7 1334.7 2377.3 1306.3 2468.8 1311.8C2560.3 1317.3 2651.7 1356.7 2743 1377.7C2834.3 1398.7 2925.7 1401.3 3017 1431.5C3108.3 1461.7 3199.7 1519.3 3291.2 1516.3C3382.7 1513.3 3474.3 1449.7 3565.8 1402.8C3657.3 1356 3748.7 1326 3794.3 1311L3840 1296L3840 2161L3794.3 2161C3748.7 2161 3657.3 2161 3565.8 2161C3474.3 2161 3382.7 2161 3291.2 2161C3199.7 2161 3108.3 2161 3017 2161C2925.7 2161 2834.3 2161 2743 2161C2651.7 2161 2560.3 2161 2468.8 2161C2377.3 2161 2285.7 2161 2194.2 2161C2102.7 2161 2011.3 2161 1920 2161C1828.7 2161 1737.3 2161 1645.8 2161C1554.3 2161 1462.7 2161 1371.2 2161C1279.7 2161 1188.3 2161 1097 2161C1005.7 2161 914.3 2161 823 2161C731.7 2161 640.3 2161 548.8 2161C457.3 2161 365.7 2161 274.2 2161C182.7 2161 91.3 2161 45.7 2161L0 2161Z" fill="#9c88c3"></path><path d="M0 1883L45.7 1864.7C91.3 1846.3 182.7 1809.7 274.2 1770.5C365.7 1731.3 457.3 1689.7 548.8 1713.8C640.3 1738 731.7 1828 823 1860C914.3 1892 1005.7 1866 1097 1827.8C1188.3 1789.7 1279.7 1739.3 1371.2 1722.7C1462.7 1706 1554.3 1723 1645.8 1739.5C1737.3 1756 1828.7 1772 1920 1782.2C2011.3 1792.3 2102.7 1796.7 2194.2 1776.7C2285.7 1756.7 2377.3 1712.3 2468.8 1710.2C2560.3 1708 2651.7 1748 2743 1743C2834.3 1738 2925.7 1688 3017 1669.7C3108.3 1651.3 3199.7 1664.7 3291.2 1671.5C3382.7 1678.3 3474.3 1678.7 3565.8 1716.3C3657.3 1754 3748.7 1829 3794.3 1866.5L3840 1904L3840 2161L3794.3 2161C3748.7 2161 3657.3 2161 3565.8 2161C3474.3 2161 3382.7 2161 3291.2 2161C3199.7 2161 3108.3 2161 3017 2161C2925.7 2161 2834.3 2161 2743 2161C2651.7 2161 2560.3 2161 2468.8 2161C2377.3 2161 2285.7 2161 2194.2 2161C2102.7 2161 2011.3 2161 1920 2161C1828.7 2161 1737.3 2161 1645.8 2161C1554.3 2161 1462.7 2161 1371.2 2161C1279.7 2161 1188.3 2161 1097 2161C1005.7 2161 914.3 2161 823 2161C731.7 2161 640.3 2161 548.8 2161C457.3 2161 365.7 2161 274.2 2161C182.7 2161 91.3 2161 45.7 2161L0 2161Z" fill="#3f2b96"></path></svg>