<svg id="visual" viewBox="0 0 3840 2160" width="3840" height="2160" xmlns="http://www.w3.org/2000/svg" xmlns:xlink="http://www.w3.org/1999/xlink" version="1.1"><rect x="0" y="0" width="3840" height="2160" fill="#fafafa"></rect><path d="M0 1097L45.7 1070.3C91.3 1043.7 182.7 990.3 274.2 957.5C365.7 924.7 457.3 912.3 548.8 922.7C640.3 933 731.7 966 823 962C914.3 958 1005.7 917 1097 901.2C1188.3 885.3 1279.7 894.7 1371.2 912C1462.7 929.3 1554.3 954.7 1645.8 992.7C1737.3 1030.7 1828.7 1081.3 1920 1074.8C2011.3 1068.3 2102.7 1004.7 2194.2 966.3C2285.7 928 2377.3 915 2468.8 943C2560.3 971 2651.7 1040 2743 1060C2834.3 1080 2925.7 1051 3017 1014C3108.3 977 3199.7 932 3291.2 906.5C3382.7 881 3474.3 875 3565.8 891C3657.3 907 3748.7 945 3794.3 964L3840 983L3840 2161L3794.3 2161C3748.7 2161 3657.3 2161 3565.8 2161C3474.3 2161 3382.7 2161 3291.2 2161C3199.7 2161 3108.3 2161 3017 2161C2925.7 2161 2834.3 2161 2743 2161C2651.7 2161 2560.3 2161 2468.8 2161C2377.3 2161 2285.7 2161 2194.2 2161C2102.7 2161 2011.3 2161 1920 2161C1828.7 2161 1737.3 2161 1645.8 2161C1554.3 2161 1462.7 2161 1371.2 2161C1279.7 2161 1188.3 2161 1097 2161C1005.7 2161 914.3 2161 823 2161C731.7 2161 640.3 2161 548.8 2161C457.3 2161 365.7 2161 274.2 2161C182.7 2161 91.3 2161 45.7 2161L0 2161Z" fill="#eeeeee"></path><path d="M0 1245L45.7 1236.8C91.3 1228.7 182.7 1212.3 274.2 1191.3C365.7 1170.3 457.3 1144.7 548.8 1170.8C640.3 1197 731.7 1275 823 1298.7C914.3 1322.3 1005.7 1291.7 1097 1282.7C1188.3 1273.7 1279.7 1286.3 1371.2 1262.8C1462.7 1239.3 1554.3 1179.7 1645.8 1178.3C1737.3 1177 1828.7 1234 1920 1234.7C2011.3 1235.3 2102.7 1179.7 2194.2 1158.2C2285.7 1136.7 2377.3 1149.3 2468.8 1151.3C2560.3 1153.3 2651.7 1144.7 2743 1171.8C2834.3 1199 2925.7 1262 3017 1294.5C3108.3 1327 3199.7 1329 3291.2 1328.7C3382.7 1328.3 3474.3 1325.7 3565.8 1293C3657.3 1260.3 3748.7 1197.7 3794.3 1166.3L3840 1135L3840 2161L3794.3 2161C3748.7 2161 3657.3 2161 3565.8 2161C3474.3 2161 3382.7 2161 3291.2 2161C3199.7 2161 3108.3 2161 3017 2161C2925.7 2161 2834.3 2161 2743 2161C2651.7 2161 2560.3 2161 2468.8 2161C2377.3 2161 2285.7 2161 2194.2 2161C2102.7 2161 2011.3 2161 1920 2161C1828.7 2161 1737.3 2161 1645.8 2161C1554.3 2161 1462.7 2161 1371.2 2161C1279.7 2161 1188.3 2161 1097 2161C1005.7 2161 914.3 2161 823 2161C731.7 2161 640.3 2161 548.8 2161C457.3 2161 365.7 2161 274.2 2161C182.7 2161 91.3 2161 45.7 2161L0 2161Z" fill="#c5bad9"></path><path d="M0 1532L45.7 1507.3C91.3 1482.7 182.7 1433.3 274.2 1411.7C365.7 1390 457.3 1396 548.8 1419.5C640.3 1443 731.7 1484 823 1492.7C914.3 1501.3 1005.7 1477.7 1097 1479C1188.3 1480.3 1279.7 1506.7 1371.2 1500.2C1462.7 1493.7 1554.3 1454.3 1645.8 1426C1737.3 1397.7 1828.7 1380.3 1920 1392.3C2011.3 1404.3 2102.7 1445.7 2194.2 1446.7C2285.7 1447.7 2377.3 1408.3 2468.8 1392C2560.3 1375.7 2651.7 1382.3 2743 1415.8C2834.3 1449.3 2925.7 1509.7 3017 1534.5C3108.3 1559.3 3199.7 1548.7 3291.2 1532.2C3382.7 1515.7 3474.3 1493.3 3565.8 1468.2C3657.3 1443 3748.7 1415 3794.3 1401L3840 1387L3840 2161L3794.3 2161C3748.7 2161 3657.3 2161 3565.8 2161C3474.3 2161 3382.7 2161 3291.2 2161C3199.7 2161 3108.3 2161 3017 2161C2925.7 2161 2834.3 2161 2743 2161C2651.7 2161 2560.3 2161 2468.8 2161C2377.3 2161 2285.7 2161 2194.2 2161C2102.7 2161 2011.3 2161 1920 2161C1828.7 2161 1737.3 2161 1645.8 2161C1554.3 2161 1462.7 2161 1371.2 2161C1279.7 2161 1188.3 2161 1097 2161C1005.7 2161 914.3 2161 823 2161C731.7 2161 640.3 2161 548.8 2161C457.3 2161 365.7 2161 274.2 2161C182.7 2161 91.3 2161 45.7 2161L0 2161Z" fill="#9c88c3"></path><path d="M0 1580L45.7 1584.3C91.3 1588.7 182.7 1597.3 274.2 1604.8C365.7 1612.3 457.3 1618.7 548.8 1622.5C640.3 1626.3 731.7 1627.7 823 1625.2C914.3 1622.7 1005.7 1616.3 1097 1631.3C1188.3 1646.3 1279.7 1682.7 1371.2 1676C1462.7 1669.3 1554.3 1619.7 1645.8 1607.8C1737.3 1596 1828.7 1622 1920 1626C2011.3 1630 2102.7 1612 2194.2 1633.3C2285.7 1654.7 2377.3 1715.3 2468.8 1745.2C2560.3 1775 2651.7 1774 2743 1759.7C2834.3 1745.3 2925.7 1717.7 3017 1713.5C3108.3 1709.3 3199.7 1728.7 3291.2 1726.8C3382.7 1725 3474.3 1702 3565.8 1694.3C3657.3 1686.7 3748.7 1694.3 3794.3 1698.2L3840 1702L3840 2161L3794.3 2161C3748.7 2161 3657.3 2161 3565.8 2161C3474.3 2161 3382.7 2161 3291.2 2161C3199.7 2161 3108.3 2161 3017 2161C2925.7 2161 2834.3 2161 2743 2161C2651.7 2161 2560.3 2161 2468.8 2161C2377.3 2161 2285.7 2161 2194.2 2161C2102.7 2161 2011.3 2161 1920 2161C1828.7 2161 1737.3 2161 1645.8 2161C1554.3 2161 1462.7 2161 1371.2 2161C1279.7 2161 1188.3 2161 1097 2161C1005.7 2161 914.3 2161 823 2161C731.7 2161 640.3 2161 548.8 2161C457.3 2161 365.7 2161 274.2 2161C182.7 2161 91.3 2161 45.7 2161L0 2161Z" fill="#7158ad"></path><path d="M0 1995L45.7 1968.5C91.3 1942 182.7 1889 274.2 1862.8C365.7 1836.7 457.3 1837.3 548.8 1846.2C640.3 1855 731.7 1872 823 1897.8C914.3 1923.7 1005.7 1958.3 1097 1952.7C1188.3 1947 1279.7 1901 1371.2 1870.2C1462.7 1839.3 1554.3 1823.7 1645.8 1845.7C1737.3 1867.7 1828.7 1927.3 1920 1953C2011.3 1978.7 2102.7 1970.3 2194.2 1949.7C2285.7 1929 2377.3 1896 2468.8 1891.7C2560.3 1887.3 2651.7 1911.7 2743 1905.3C2834.3 1899 2925.7 1862 3017 1863C3108.3 1864 3199.7 1903 3291.2 1912.2C3382.7 1921.3 3474.3 1900.7 3565.8 1908.8C3657.3 1917 3748.7 1954 3794.3 1972.5L3840 1991L3840 2161L3794.3 2161C3748.7 2161 3657.3 2161 3565.8 2161C3474.3 2161 3382.7 2161 3291.2 2161C3199.7 2161 3108.3 2161 3017 2161C2925.7 2161 2834.3 2161 2743 2161C2651.7 2161 2560.3 2161 2468.8 2161C2377.3 2161 2285.7 2161 2194.2 2161C2102.7 2161 2011.3 2161 1920 2161C1828.7 2161 1737.3 2161 1645.8 2161C1554.3 2161 1462.7 2161 1371.2 2161C1279.7 2161 1188.3 2161 1097 2161C1005.7 2161 914.3 2161 823 2161C731.7 2161 640.3 2161 548.8 2161C457.3 2161 365.7 2161 274.2 2161C182.7 2161 91.3 2161 45.7 2161L0 2161Z" fill="#3f2b96"></path></svg>