<svg id="visual" viewBox="0 0 3840 2160" width="3840" height="2160" xmlns="http://www.w3.org/2000/svg" xmlns:xlink="http://www.w3.org/1999/xlink" version="1.1"><rect x="0" y="0" width="3840" height="2160" fill="#fafafa"></rect><path d="M0 1087L64 1073.5C128 1060 256 1033 384 1016.5C512 1000 640 994 768 1000.7C896 1007.3 1024 1026.7 1152 1008.2C1280 989.7 1408 933.3 1536 940.7C1664 948 1792 1019 1920 1069C2048 1119 2176 1148 2304 1175.5C2432 1203 2560 1229 2688 1228.7C2816 1228.3 2944 1201.7 3072 1162.7C3200 1123.7 3328 1072.3 3456 1055.5C3584 1038.7 3712 1056.3 3776 1065.2L3840 1074L3840 2161L3776 2161C3712 2161 3584 2161 3456 2161C3328 2161 3200 2161 3072 2161C2944 2161 2816 2161 2688 2161C2560 2161 2432 2161 2304 2161C2176 2161 2048 2161 1920 2161C1792 2161 1664 2161 1536 2161C1408 2161 1280 2161 1152 2161C1024 2161 896 2161 768 2161C640 2161 512 2161 384 2161C256 2161 128 2161 64 2161L0 2161Z" fill="#eeeeee"></path><path d="M0 1493L64 1518.7C128 1544.3 256 1595.7 384 1594.8C512 1594 640 1541 768 1476.2C896 1411.3 1024 1334.7 1152 1319.3C1280 1304 1408 1350 1536 1380C1664 1410 1792 1424 1920 1411.5C2048 1399 2176 1360 2304 1368.8C2432 1377.7 2560 1434.3 2688 1487.2C2816 1540 2944 1589 3072 1612C3200 1635 3328 1632 3456 1586.7C3584 1541.3 3712 1453.7 3776 1409.8L3840 1366L3840 2161L3776 2161C3712 2161 3584 2161 3456 2161C3328 2161 3200 2161 3072 2161C2944 2161 2816 2161 2688 2161C2560 2161 2432 2161 2304 2161C2176 2161 2048 2161 1920 2161C1792 2161 1664 2161 1536 2161C1408 2161 1280 2161 1152 2161C1024 2161 896 2161 768 2161C640 2161 512 2161 384 2161C256 2161 128 2161 64 2161L0 2161Z" fill="#9c88c3"></path><path d="M0 1944L64 1937C128 1930 256 1916 384 1862.8C512 1809.7 640 1717.3 768 1688.3C896 1659.3 1024 1693.7 1152 1728.2C1280 1762.7 1408 1797.3 1536 1802.7C1664 1808 1792 1784 1920 1797.8C2048 1811.7 2176 1863.3 2304 1847C2432 1830.7 2560 1746.3 2688 1693.7C2816 1641 2944 1620 3072 1635C3200 1650 3328 1701 3456 1755.2C3584 1809.3 3712 1866.7 3776 1895.3L3840 1924L3840 2161L3776 2161C3712 2161 3584 2161 3456 2161C3328 2161 3200 2161 3072 2161C2944 2161 2816 2161 2688 2161C2560 2161 2432 2161 2304 2161C2176 2161 2048 2161 1920 2161C1792 2161 1664 2161 1536 2161C1408 2161 1280 2161 1152 2161C1024 2161 896 2161 768 2161C640 2161 512 2161 384 2161C256 2161 128 2161 64 2161L0 2161Z" fill="#3f2b96"></path></svg>