<svg id="visual" viewBox="0 0 3840 2160" width="3840" height="2160" xmlns="http://www.w3.org/2000/svg" xmlns:xlink="http://www.w3.org/1999/xlink" version="1.1"><rect x="0" y="0" width="3840" height="2160" fill="#fafafa"></rect><path d="M0 903L91.5 928.7C183 954.3 366 1005.7 548.8 1003C731.7 1000.3 914.3 943.7 1097.2 956.7C1280 969.7 1463 1052.3 1645.8 1062.2C1828.7 1072 2011.3 1009 2194.2 969.5C2377 930 2560 914 2742.8 951.7C2925.7 989.3 3108.3 1080.7 3291.2 1093.8C3474 1107 3657 1042 3748.5 1009.5L3840 977L3840 2161L3748.5 2161C3657 2161 3474 2161 3291.2 2161C3108.3 2161 2925.7 2161 2742.8 2161C2560 2161 2377 2161 2194.2 2161C2011.3 2161 1828.7 2161 1645.8 2161C1463 2161 1280 2161 1097.2 2161C914.3 2161 731.7 2161 548.8 2161C366 2161 183 2161 91.5 2161L0 2161Z" fill="#fafafa"></path><path d="M0 1206L91.5 1190.7C183 1175.3 366 1144.7 548.8 1141C731.7 1137.3 914.3 1160.7 1097.2 1201.5C1280 1242.3 1463 1300.7 1645.8 1326.5C1828.7 1352.3 2011.3 1345.7 2194.2 1308C2377 1270.3 2560 1201.7 2742.8 1207C2925.7 1212.3 3108.3 1291.7 3291.2 1330.3C3474 1369 3657 1367 3748.5 1366L3840 1365L3840 2161L3748.5 2161C3657 2161 3474 2161 3291.2 2161C3108.3 2161 2925.7 2161 2742.8 2161C2560 2161 2377 2161 2194.2 2161C2011.3 2161 1828.7 2161 1645.8 2161C1463 2161 1280 2161 1097.2 2161C914.3 2161 731.7 2161 548.8 2161C366 2161 183 2161 91.5 2161L0 2161Z" fill="#fae9c1"></path><path d="M0 1621L91.5 1634C183 1647 366 1673 548.8 1682.8C731.7 1692.7 914.3 1686.3 1097.2 1655.2C1280 1624 1463 1568 1645.8 1564.5C1828.7 1561 2011.3 1610 2194.2 1638C2377 1666 2560 1673 2742.8 1665.2C2925.7 1657.3 3108.3 1634.7 3291.2 1623.2C3474 1611.7 3657 1611.3 3748.5 1611.2L3840 1611L3840 2161L3748.5 2161C3657 2161 3474 2161 3291.2 2161C3108.3 2161 2925.7 2161 2742.8 2161C2560 2161 2377 2161 2194.2 2161C2011.3 2161 1828.7 2161 1645.8 2161C1463 2161 1280 2161 1097.2 2161C914.3 2161 731.7 2161 548.8 2161C366 2161 183 2161 91.5 2161L0 2161Z" fill="#f5d988"></path><path d="M0 1918L91.5 1890.8C183 1863.7 366 1809.3 548.8 1777C731.7 1744.7 914.3 1734.3 1097.2 1753C1280 1771.7 1463 1819.3 1645.8 1818.8C1828.7 1818.3 2011.3 1769.7 2194.2 1761.7C2377 1753.7 2560 1786.3 2742.8 1816.5C2925.7 1846.7 3108.3 1874.3 3291.2 1904.7C3474 1935 3657 1968 3748.5 1984.5L3840 2001L3840 2161L3748.5 2161C3657 2161 3474 2161 3291.2 2161C3108.3 2161 2925.7 2161 2742.8 2161C2560 2161 2377 2161 2194.2 2161C2011.3 2161 1828.7 2161 1645.8 2161C1463 2161 1280 2161 1097.2 2161C914.3 2161 731.7 2161 548.8 2161C366 2161 183 2161 91.5 2161L0 2161Z" fill="#ecc94b"></path></svg>